<svg width="48" height="48" viewBox="0 0 48 48" fill="none" xmlns="http://www.w3.org/2000/svg">
<path d="M40.483 10.3714C37.4514 8.98037 34.2005 7.95552 30.8015 7.36855C30.7396 7.35722 30.6777 7.38553 30.6458 7.44215C30.2277 8.18577 29.7646 9.15589 29.4403 9.91839C25.7844 9.37106 22.1473 9.37106 18.5664 9.91839C18.242 9.13894 17.7621 8.18577 17.3421 7.44215C17.3102 7.38742 17.2484 7.35911 17.1865 7.36855C13.7893 7.95365 10.5384 8.97849 7.5049 10.3714C7.47864 10.3827 7.45613 10.4016 7.44119 10.4261C1.27488 19.6385 -0.414338 28.6244 0.414333 37.4989C0.418083 37.5423 0.442455 37.5838 0.476203 37.6102C4.54456 40.5979 8.48547 42.4117 12.3532 43.614C12.4151 43.6329 12.4807 43.6102 12.5201 43.5593C13.435 42.3099 14.2505 40.9925 14.9498 39.6071C14.9911 39.5259 14.9517 39.4297 14.8673 39.3976C13.5737 38.9069 12.3419 38.3086 11.157 37.6291C11.0633 37.5744 11.0558 37.4403 11.142 37.3762C11.3914 37.1893 11.6408 36.9949 11.8789 36.7986C11.922 36.7628 11.982 36.7552 12.0326 36.7779C19.8168 40.3318 28.2442 40.3318 35.9365 36.7779C35.9872 36.7533 36.0472 36.7609 36.0922 36.7967C36.3303 36.993 36.5797 37.1893 36.8309 37.3762C36.9171 37.4403 36.9115 37.5744 36.8177 37.6291C35.6329 38.3217 34.4011 38.9069 33.1056 39.3957C33.0212 39.4278 32.9837 39.5259 33.025 39.6071C33.7393 40.9905 34.5548 42.3079 35.4529 43.5574C35.4904 43.6102 35.5578 43.6329 35.6197 43.614C39.5062 42.4117 43.4471 40.5979 47.5154 37.6102C47.5511 37.5838 47.5736 37.5442 47.5773 37.5008C48.5691 27.2409 45.9162 18.3286 40.5449 10.428C40.5317 10.4016 40.5093 10.3827 40.483 10.3714ZM16.1122 32.0952C13.7687 32.0952 11.8376 29.9437 11.8376 27.3013C11.8376 24.6589 13.7312 22.5073 16.1122 22.5073C18.512 22.5073 20.4243 24.6778 20.3868 27.3013C20.3868 29.9437 18.4932 32.0952 16.1122 32.0952ZM31.9169 32.0952C29.5734 32.0952 27.6424 29.9437 27.6424 27.3013C27.6424 24.6589 29.5359 22.5073 31.9169 22.5073C34.3167 22.5073 36.229 24.6778 36.1916 27.3013C36.1916 29.9437 34.3167 32.0952 31.9169 32.0952Z" fill="#242430"/>
</svg>
