<svg width="48" height="48" viewBox="0 0 48 48" fill="none" xmlns="http://www.w3.org/2000/svg">
<path d="M31.68 24C31.68 25.519 31.2296 27.0038 30.3857 28.2668C29.5418 29.5297 28.3423 30.5141 26.939 31.0954C25.5357 31.6767 23.9915 31.8288 22.5017 31.5324C21.0119 31.2361 19.6435 30.5046 18.5694 29.4306C17.4954 28.3565 16.7639 26.9881 16.4676 25.4983C16.1712 24.0085 16.3233 22.4643 16.9046 21.061C17.4859 19.6577 18.4703 18.4582 19.7332 17.6143C20.9962 16.7704 22.481 16.32 24 16.32C26.0361 16.3223 27.9882 17.1322 29.428 18.572C30.8678 20.0118 31.6777 21.9639 31.68 24ZM48 13.44V34.56C47.996 38.1233 46.5787 41.5394 44.0591 44.0591C41.5394 46.5787 38.1233 47.996 34.56 48H13.44C9.87673 47.996 6.46056 46.5787 3.94094 44.0591C1.42133 41.5394 0.00403554 38.1233 0 34.56V13.44C0.00403554 9.87673 1.42133 6.46056 3.94094 3.94094C6.46056 1.42133 9.87673 0.00403554 13.44 0H34.56C38.1233 0.00403554 41.5394 1.42133 44.0591 3.94094C46.5787 6.46056 47.996 9.87673 48 13.44ZM35.52 24C35.52 21.7216 34.8444 19.4943 33.5785 17.5998C32.3127 15.7054 30.5135 14.2288 28.4085 13.3569C26.3035 12.485 23.9872 12.2569 21.7526 12.7014C19.5179 13.1459 17.4652 14.243 15.8541 15.8541C14.243 17.4652 13.1459 19.5179 12.7014 21.7526C12.2569 23.9872 12.485 26.3035 13.3569 28.4085C14.2288 30.5135 15.7054 32.3127 17.5998 33.5785C19.4943 34.8444 21.7216 35.52 24 35.52C27.0542 35.5165 29.9824 34.3017 32.1421 32.1421C34.3017 29.9824 35.5165 27.0542 35.52 24ZM39.36 11.52C39.36 10.9504 39.1911 10.3936 38.8746 9.91996C38.5582 9.44634 38.1084 9.07721 37.5821 8.85923C37.0559 8.64125 36.4768 8.58421 35.9181 8.69534C35.3595 8.80646 34.8463 9.08076 34.4435 9.48353C34.0408 9.88631 33.7665 10.3995 33.6553 10.9581C33.5442 11.5168 33.6012 12.0959 33.8192 12.6221C34.0372 13.1484 34.4063 13.5982 34.88 13.9146C35.3536 14.2311 35.9104 14.4 36.48 14.4C37.2438 14.4 37.9764 14.0966 38.5165 13.5565C39.0566 13.0164 39.36 12.2838 39.36 11.52Z" fill="#242430"/>
</svg>
