<svg width="48" height="48" viewBox="0 0 48 48" fill="none" xmlns="http://www.w3.org/2000/svg">
<path d="M13.5377 10.5007C21.0143 10.5007 27.0749 16.2094 27.0749 23.2509C27.0749 30.2925 21.0139 36.0007 13.5377 36.0007C6.06146 36.0007 0 30.2925 0 23.2509C0 16.2094 6.061 10.5007 13.5377 10.5007ZM35.1564 11.2476C38.8947 11.2476 41.9252 16.6211 41.9252 23.2509H41.9257C41.9257 29.879 38.8952 35.2543 35.1568 35.2543C31.4185 35.2543 28.388 29.879 28.388 23.2509C28.388 16.6229 31.418 11.2476 35.1564 11.2476ZM45.6194 12.4978C46.9339 12.4978 48 17.3121 48 23.2509C48 29.1881 46.9343 34.004 45.6194 34.004C44.3044 34.004 43.2392 29.1894 43.2392 23.2509C43.2392 17.3125 44.3049 12.4978 45.6194 12.4978Z" fill="#242430"/>
</svg>
