<svg width="48" height="48" viewBox="0 0 48 48" fill="none" xmlns="http://www.w3.org/2000/svg">
<path d="M43.0859 13.9579C43.1152 14.3919 43.1152 14.8258 43.1152 15.2638C43.1152 28.609 33.209 44 15.0952 44V43.992C9.7443 44 4.50457 42.4281 0 39.4643C0.778062 39.5603 1.56002 39.6083 2.34394 39.6103C6.77831 39.6143 11.0859 38.0884 14.5745 35.2785C10.3605 35.1966 6.6652 32.3787 5.37428 28.265C6.85046 28.557 8.37148 28.497 9.82035 28.091C5.22608 27.1391 1.92078 22.9993 1.92078 18.1916C1.92078 18.1476 1.92078 18.1056 1.92078 18.0636C3.2897 18.8456 4.82243 19.2796 6.39025 19.3276C2.06313 16.3617 0.729311 10.4581 3.34235 5.84241C8.34223 12.152 15.7192 15.9878 23.6383 16.3937C22.8446 12.886 23.9288 9.2102 26.4873 6.74435C30.4536 2.92059 36.6918 3.11658 40.4202 7.18232C42.6257 6.73635 44.7396 5.9064 46.674 4.73048C45.9388 7.06833 44.4002 9.05421 42.3449 10.3161C44.2969 10.0801 46.204 9.54417 48 8.72623C46.6779 10.7581 45.0126 12.528 43.0859 13.9579Z" fill="#242430"/>
</svg>
