<svg width="374" height="248" viewBox="0 0 374 248" fill="none" xmlns="http://www.w3.org/2000/svg">
<path d="M373 247V9L365 1V239L373 247Z" fill="#53E1AD"/>
<path d="M365 1H1V239H365V1Z" fill="#E8ECE2"/>
<path d="M1 239L9 247H373L365 239H1Z" fill="#53E1AD"/>
<path d="M1 239H0.5V239.207L0.646447 239.354L1 239ZM9 247L8.64645 247.354L8.79289 247.5H9V247ZM373 247V247.5H373.5V247H373ZM373 9H373.5V8.79289L373.354 8.64645L373 9ZM365 1L365.354 0.646447L365.207 0.5H365V1ZM1 1V0.5H0.5V1H1ZM0.646447 239.354L8.64645 247.354L9.35355 246.646L1.35355 238.646L0.646447 239.354ZM9 247.5H373V246.5H9V247.5ZM373.5 247V9H372.5V247H373.5ZM373.354 8.64645L365.354 0.646447L364.646 1.35355L372.646 9.35355L373.354 8.64645ZM365 0.5H1V1.5H365V0.5ZM0.5 1V239H1.5V1H0.5ZM373.354 246.646L365.354 238.646L364.646 239.354L372.646 247.354L373.354 246.646ZM364.5 1V239H365.5V1H364.5ZM365 238.5H1V239.5H365V238.5Z" fill="#242430"/>
</svg>
