<svg width="370" height="370" viewBox="0 0 370 370" fill="none" xmlns="http://www.w3.org/2000/svg">
<path d="M361 1H1V361H361V1Z" fill="#E8ECE2"/>
<path d="M1 361H0.5V361.5H1V361ZM361 1H361.5V0.5H361V1ZM1 1V0.5H0.5V1H1ZM361 361V361.5H361.5V361H361ZM361 0.5H1V1.5H361V0.5ZM0.5 1V361H1.5V1H0.5ZM360.5 1V361H361.5V1H360.5ZM361 360.5H1V361.5H361V360.5Z" fill="#242430"/>
<path d="M369 369V9L361 1V361L369 369Z" fill="#53E1AD"/>
<path d="M1 361L9 369H369L361 361H1Z" fill="#53E1AD"/>
<path d="M1 361H0.5V361.207L0.646447 361.354L1 361ZM9 369L8.64645 369.354L8.79289 369.5H9V369ZM369 369V369.5H369.5V369H369ZM369 9H369.5V8.79289L369.354 8.64645L369 9ZM361 1L361.354 0.646447L361.207 0.5H361V1ZM1 1V0.5H0.5V1H1ZM0.646447 361.354L8.64645 369.354L9.35355 368.646L1.35355 360.646L0.646447 361.354ZM9 369.5H369V368.5H9V369.5ZM369.5 369V9H368.5V369H369.5ZM369.354 8.64645L361.354 0.646447L360.646 1.35355L368.646 9.35355L369.354 8.64645ZM361 0.5H1V1.5H361V0.5ZM0.5 1V361H1.5V1H0.5ZM369.354 368.646L361.354 360.646L360.646 361.354L368.646 369.354L369.354 368.646ZM360.5 1V361H361.5V1H360.5ZM361 360.5H1V361.5H361V360.5Z" fill="#242430"/>
</svg>
