<svg xmlns="http://www.w3.org/2000/svg" fill="none" viewBox="23.75 16.5 123.94 159.97">
<path d="M30.7479 154.888L73.5467 80.7581" stroke="#53E1AD" stroke-width="14"/>
<path d="M43.3774 162.18L86.1763 88.0498" stroke="#FBD200" stroke-width="14"/>
<path d="M56.007 169.471L98.8058 95.3415" stroke="#FF665C" stroke-width="14"/>
<path d="M24.4331 151.242L67.2319 77.1123M37.0626 158.534L79.8615 84.404M49.6922 165.825L92.491 91.6956M62.3217 173.117L105.121 98.9873" stroke="#242430"/>
<path d="M84.1678 74.8621L98.6015 83.1954L95.0578 95.5832L75.2114 84.1249L84.1678 74.8621Z" fill="#242430" stroke="#242430"/>
<path d="M111.879 17.4895C102.996 15.2476 95.4516 21.2362 92.79 24.5108L115.343 37.5316C116.848 33.5893 118.262 24.0617 111.879 17.4895Z" fill="#FF665C" stroke="#242430"/>
<path d="M134.432 30.5104C125.549 28.2684 118.005 34.2571 115.343 37.5316L137.896 50.5525C139.401 46.6102 140.815 37.0825 134.432 30.5104Z" fill="#FF665C" stroke="#242430"/>
<rect x="92.79" y="24.5108" width="52.0833" height="4.16667" transform="rotate(30 92.79 24.5108)" fill="#242430" stroke="#242430"/>
<rect x="90.7068" y="28.1192" width="26.0417" height="39.5833" transform="rotate(30 90.7068 28.1192)" fill="#FBD200" stroke="#242430"/>
<rect x="113.26" y="41.1401" width="26.0417" height="39.5833" transform="rotate(30 113.26 41.1401)" fill="#FBD200" stroke="#242430"/>
<path d="M52.7708 45.9097L74.561 56.0847L78.7276 48.8678L53.8125 44.1055L52.7708 45.9097Z" fill="#242430" stroke="#242430"/>
<path d="M139.373 95.9097L119.666 82.1263L123.833 74.9094L140.415 94.1055L139.373 95.9097Z" fill="#242430" stroke="#242430"/>
<path d="M78.7276 48.8678L53.8125 44.1055L60.5833 32.3781L88.1026 32.6298L78.7276 48.8678Z" fill="#FF665C" stroke="#242430"/>
<path d="M123.833 74.9094L140.415 94.1055L147.186 82.3781L133.208 58.6715L123.833 74.9094Z" fill="#FF665C" stroke="#242430"/>
<rect x="84.4843" y="61.8138" width="29.1667" height="4.16667" transform="rotate(30 84.4843 61.8138)" fill="#FF665C" stroke="#242430"/>
<circle cx="78.0298" cy="60.493" r="2.08333" transform="rotate(30 78.0298 60.493)" fill="#E8ECE2" stroke="#242430"/>
<circle r="2.08333" transform="matrix(-0.866025 -0.5 -0.5 0.866025 114.114 81.3264)" fill="#E8ECE2" stroke="#242430"/>
<rect x="75.4258" y="65.0036" width="41.6667" height="4.16667" transform="rotate(30 75.4258 65.0036)" fill="#53E1AD" stroke="#242430"/>
<path d="M73.3424 68.6121L87.7762 76.9454L85.2742 87.529L65.4278 76.0707L73.3424 68.6121Z" fill="#8EEBFF" stroke="#242430"/>
<path d="M94.9931 81.1121L109.427 89.4454L106.925 100.029L87.0784 88.5707L94.9931 81.1121Z" fill="#8EEBFF" stroke="#242430"/>
<path d="M97.8358 40.6976L116.486 35.7004L121.483 54.3503L99.0009 65.9852L97.8358 40.6976Z" fill="#53E1AD" stroke="#242430"/>
<path d="M103.248 43.8226L113.361 41.113L116.07 51.2253L103.949 57.4151L103.248 43.8226Z" fill="#FBD200" stroke="#242430"/>
<path d="M106.857 45.9059L111.277 44.7215L112.462 49.142L107.334 51.5514L106.857 45.9059Z" fill="#53E1AD" stroke="#242430"/>
</svg>