<svg width="110" height="36" viewBox="0 0 110 36" fill="none" xmlns="http://www.w3.org/2000/svg">
<path d="M6.30796 27.1809C8.68772 31.3926 13.2093 34.2439 18.3859 34.2439H94.1404C101.782 34.2439 108 28.0328 108 20.3969C108 17.8393 107.302 15.4425 106.087 13.3852L103.448 8.81914C101.068 4.60647 96.5468 1.7561 91.3701 1.7561H15.6157C7.97288 1.7561 1.7561 7.96725 1.7561 15.6031C1.7561 18.1606 2.45441 20.5575 3.66909 22.6148L6.30796 27.1809Z" fill="#E8ECE2"/>
<path fill-rule="evenodd" clip-rule="evenodd" d="M4.78338 28.0524L2.15263 23.5003C0.785929 21.1828 0 18.4815 0 15.6031C0 6.99588 7.00451 0 15.6157 0H91.3701C97.2039 0 102.294 3.21168 104.973 7.94734C104.974 7.95003 104.976 7.95272 104.977 7.9554L107.599 12.4924C107.601 12.4949 107.602 12.4974 107.604 12.4999C108.97 14.8173 109.756 17.5186 109.756 20.3969C109.756 29.0042 102.751 36 94.1404 36H18.3859C12.5519 36 7.46213 32.7871 4.78338 28.0524ZM106.087 13.3852C107.302 15.4425 108 17.8393 108 20.3969C108 28.0328 101.782 34.2439 94.1404 34.2439H18.3859C13.2093 34.2439 8.68772 31.3926 6.30796 27.1809L3.66909 22.6148C2.45441 20.5575 1.7561 18.1606 1.7561 15.6031C1.7561 7.96725 7.97288 1.7561 15.6157 1.7561H91.3701C96.5468 1.7561 101.068 4.60647 103.448 8.81914L106.087 13.3852Z" fill="#E8ECE2"/>
<path d="M6.30797 27.1809C8.68773 31.3926 13.2093 34.2439 18.3859 34.2439H94.1404C101.782 34.2439 108 28.0328 108 20.3969C108 17.8394 107.302 15.4425 106.087 13.3853L103.448 8.81915C101.068 4.60647 96.5468 1.7561 91.3702 1.7561H15.6157C7.97288 1.7561 1.7561 7.96725 1.7561 15.6031C1.7561 18.1607 2.45441 20.5575 3.6691 22.6148L6.30797 27.1809Z" fill="#242430"/>
<path d="M91.5969 26.3415C97.7373 26.3415 102.732 21.4175 102.732 15.3659C102.732 9.31418 97.7364 4.39025 91.5969 4.39025H15.5251C9.38469 4.39025 4.39025 9.31418 4.39025 15.3659C4.39025 21.4175 9.38561 26.3415 15.5251 26.3415H91.5969Z" fill="#E8ECE2"/>
<path fill-rule="evenodd" clip-rule="evenodd" d="M15.3659 7.0244C10.7593 7.0244 7.0244 10.7593 7.0244 15.3659C7.0244 19.9724 10.7593 23.7073 15.3659 23.7073C19.9724 23.7073 23.7073 19.9724 23.7073 15.3659C23.7073 10.7593 19.9724 7.0244 15.3659 7.0244ZM20.8265 16.8284C20.9793 16.8689 21.1358 16.775 21.1698 16.6213C21.2591 16.2172 21.3097 15.7966 21.3097 15.3659C21.3097 14.9351 21.2582 14.5145 21.1698 14.1105C21.1358 13.9567 20.9793 13.8629 20.8265 13.9034L19.1753 14.3452C19.0538 14.3783 18.9259 14.3249 18.8633 14.2163L18.1105 12.9112C18.0469 12.8026 18.0663 12.6645 18.1546 12.5762L19.3649 11.3659C19.4772 11.2545 19.4735 11.0704 19.3557 10.9637C18.7363 10.4022 17.9963 9.97332 17.1827 9.71285C17.0318 9.66499 16.8707 9.75242 16.8293 9.90613L16.3884 11.5555C16.3553 11.677 16.2467 11.7607 16.1206 11.7607H14.6139C14.4887 11.7607 14.3792 11.677 14.3461 11.5555L13.9043 9.90613C13.8629 9.75242 13.7018 9.66499 13.5509 9.71285C12.7363 9.97424 11.9972 10.4022 11.3787 10.9637C11.2609 11.0695 11.2573 11.2536 11.3695 11.3659L12.5798 12.5762C12.6682 12.6654 12.6866 12.8026 12.624 12.9112L11.8702 14.2163C11.8067 14.3249 11.6797 14.3783 11.5582 14.3452L9.90705 13.9034C9.75518 13.8629 9.5978 13.9558 9.56466 14.1095C9.47446 14.5145 9.42384 14.9342 9.42384 15.3659C9.42384 15.7975 9.47539 16.2172 9.56466 16.6222C9.5978 16.7759 9.75518 16.8689 9.90705 16.8284L11.5582 16.3866C11.6797 16.3534 11.8076 16.4068 11.8702 16.5154L12.624 17.8205C12.6875 17.9291 12.6682 18.0672 12.5798 18.1556L11.3695 19.3668C11.2573 19.4781 11.2609 19.6622 11.3787 19.769C11.9972 20.3295 12.7372 20.7584 13.5509 21.0189C13.7018 21.0667 13.8629 20.9793 13.9043 20.8256L14.3461 19.1763C14.3792 19.0548 14.4878 18.971 14.6139 18.971H16.1206C16.2457 18.971 16.3553 19.0548 16.3884 19.1763L16.8293 20.8256C16.8707 20.9793 17.0318 21.0667 17.1827 21.0189C17.9972 20.7575 18.7363 20.3295 19.3557 19.769C19.4735 19.6631 19.4772 19.4791 19.3649 19.3668L18.1546 18.1556C18.0663 18.0663 18.0479 17.9291 18.1105 17.8205L18.8633 16.5154C18.9268 16.4068 19.0538 16.3534 19.1753 16.3866L20.8265 16.8284Z" fill="#242430"/>
<path d="M55.7506 8.87848C55.7506 7.83469 54.9411 7.02429 53.9175 7.02429C52.8738 7.02429 52.0634 7.83378 52.0634 8.87848C52.0634 9.92319 52.894 10.7327 53.9175 10.7327C54.9411 10.7327 55.7506 9.92227 55.7506 8.87848Z" fill="#242430"/>
<path d="M55.1745 11.7774H52.6597C52.5062 11.7774 52.3822 11.9014 52.3822 12.0549V22.456C52.3822 22.6094 52.5062 22.7335 52.6597 22.7335H55.1745C55.3279 22.7335 55.452 22.6094 55.452 22.456V12.0549C55.452 11.9014 55.3279 11.7774 55.1745 11.7774Z" fill="#242430"/>
<path d="M47.6759 7.17419H50.1908C50.3442 7.17419 50.4683 7.29824 50.4683 7.45168V22.4561C50.4683 22.6096 50.3442 22.7336 50.1908 22.7336H47.6759C47.5225 22.7336 47.3985 22.6096 47.3985 22.4561V7.45076C47.3985 7.29732 47.5225 7.17327 47.6759 7.17327V7.17419Z" fill="#242430"/>
<path fill-rule="evenodd" clip-rule="evenodd" d="M39.6711 15.6989C38.8828 13.2052 36.7511 11.5642 33.9588 11.5642V11.5633C30.6124 11.5633 28.0976 14.0147 28.0976 17.2545C28.0976 20.4943 30.6124 22.9457 33.9588 22.9457C35.5639 22.9457 36.9661 22.3007 37.9437 21.234C38.0411 21.1283 38.2148 21.1641 38.2579 21.301L38.6503 22.5396C38.6861 22.6545 38.7936 22.7326 38.914 22.7326H41.5097C41.6971 22.7326 41.8303 22.5506 41.7743 22.3724L39.6711 15.6989ZM33.9588 14.2931C35.6007 14.2931 36.8365 15.5712 36.8365 17.2554C36.8365 18.9396 35.6218 20.2398 33.9588 20.2398C32.2957 20.2398 31.081 18.9387 31.081 17.2554C31.081 15.5721 32.3168 14.2931 33.9588 14.2931Z" fill="#242430"/>
<path d="M44.3985 19.0463C43.3116 19.0463 42.4589 19.899 42.4589 20.986C42.4589 22.073 43.2904 22.9256 44.3985 22.9256C45.5066 22.9256 46.3382 22.073 46.3382 20.986C46.3382 19.899 45.4855 19.0463 44.3985 19.0463Z" fill="#242430"/>
<path d="M59.7944 11.9621L62.0271 18.257C62.085 18.4206 62.3175 18.4206 62.3754 18.257L64.6081 11.9621C64.6476 11.8519 64.7524 11.7775 64.8691 11.7775H67.2544C67.4482 11.7775 67.5824 11.9722 67.5135 12.1533L63.5267 22.5544C63.4853 22.6619 63.3824 22.7326 63.2676 22.7326H60.942C60.8272 22.7326 60.7243 22.6619 60.6829 22.5544L56.6961 12.1533C56.6263 11.9722 56.7604 11.7775 56.9552 11.7775H59.5325C59.6501 11.7775 59.754 11.851 59.7935 11.9621H59.7944Z" fill="#242430"/>
<path fill-rule="evenodd" clip-rule="evenodd" d="M73.1743 11.5643C69.9979 11.5643 67.6108 14.0157 67.6108 17.2555L67.6117 17.2546C67.6117 20.4943 70.0632 22.9458 73.3452 22.9458C74.8916 22.9458 76.2717 22.4294 77.3146 21.5685C77.4404 21.4646 77.4469 21.2735 77.3311 21.1587L75.7985 19.6426C75.6928 19.5378 75.5256 19.5378 75.4144 19.638C74.876 20.1222 74.1611 20.4098 73.3452 20.4098C71.9312 20.4098 70.824 19.4524 70.4941 18.1008C70.4656 17.985 70.5547 17.8729 70.6742 17.8729H78.3005C78.4511 17.8729 78.5743 17.7526 78.5779 17.6019C78.6707 13.9404 76.3507 11.5643 73.1743 11.5643ZM75.3979 15.258C75.4604 15.382 75.3731 15.529 75.2343 15.529V15.5281H70.9912C70.8506 15.5281 70.7624 15.3783 70.8286 15.2543C71.2898 14.3878 72.1085 13.9302 73.1734 13.9302C74.1814 13.9302 74.9605 14.3887 75.3979 15.258Z" fill="#242430"/>
<path fill-rule="evenodd" clip-rule="evenodd" d="M91.7561 7.0244C87.1496 7.0244 83.4146 10.7593 83.4146 15.3659C83.4146 19.9724 87.1496 23.7073 91.7561 23.7073C96.3626 23.7073 100.098 19.9724 100.098 15.3659C100.098 10.7593 96.3626 7.0244 91.7561 7.0244ZM97.2168 16.8284C97.3695 16.8689 97.526 16.775 97.5601 16.6213C97.6493 16.2172 97.7 15.7966 97.7 15.3659C97.7 14.9351 97.6484 14.5145 97.5601 14.1105C97.526 13.9567 97.3695 13.8629 97.2168 13.9034L95.5656 14.3452C95.4441 14.3783 95.3162 14.3249 95.2536 14.2163L94.5007 12.9112C94.4372 12.8026 94.4565 12.6645 94.5449 12.5762L95.7552 11.3659C95.8675 11.2545 95.8638 11.0704 95.746 10.9637C95.1265 10.4022 94.3866 9.97332 93.5729 9.71285C93.422 9.66499 93.2609 9.75242 93.2195 9.90613L92.7786 11.5555C92.7455 11.677 92.6369 11.7607 92.5108 11.7607H91.0041C90.879 11.7607 90.7694 11.677 90.7363 11.5555L90.2945 9.90613C90.2531 9.75242 90.092 9.66499 89.9411 9.71285C89.1266 9.97424 88.3875 10.4022 87.769 10.9637C87.6512 11.0695 87.6475 11.2536 87.7598 11.3659L88.9701 12.5762C89.0584 12.6654 89.0769 12.8026 89.0143 12.9112L88.2605 14.2163C88.197 14.3249 88.0699 14.3783 87.9485 14.3452L86.2973 13.9034C86.1454 13.8629 85.988 13.9558 85.9549 14.1095C85.8647 14.5145 85.8141 14.9342 85.8141 15.3659C85.8141 15.7975 85.8656 16.2172 85.9549 16.6222C85.988 16.7759 86.1454 16.8689 86.2973 16.8284L87.9485 16.3866C88.0699 16.3534 88.1979 16.4068 88.2605 16.5154L89.0143 17.8205C89.0778 17.9291 89.0584 18.0672 88.9701 18.1556L87.7598 19.3668C87.6475 19.4781 87.6512 19.6622 87.769 19.769C88.3875 20.3295 89.1275 20.7584 89.9411 21.0189C90.092 21.0667 90.2531 20.9793 90.2945 20.8256L90.7363 19.1763C90.7694 19.0548 90.8781 18.971 91.0041 18.971H92.5108C92.636 18.971 92.7455 19.0548 92.7786 19.1763L93.2195 20.8256C93.2609 20.9793 93.422 21.0667 93.5729 21.0189C94.3875 20.7575 95.1265 20.3295 95.746 19.769C95.8638 19.6631 95.8675 19.4791 95.7552 19.3668L94.5449 18.1556C94.4565 18.0663 94.4381 17.9291 94.5007 17.8205L95.2536 16.5154C95.3171 16.4068 95.4441 16.3534 95.5656 16.3866L97.2168 16.8284Z" fill="#242430"/>
</svg>
