<svg width="36" height="36" viewBox="0 0 36 36" fill="none" xmlns="http://www.w3.org/2000/svg">
<path d="M34 23.0001L34.5 23.0001L34.5 22.5001L34 22.5001L34 23.0001ZM2 23.0001L2.00001 22.5001L1.5 22.5001L1.5 23.0001L2 23.0001ZM2 26.0001L1.5 26.0001L1.5 26.5001L2 26.5001L2 26.0001ZM34 26.0001L34 26.5001L34.5 26.5001L34.5 26.0001L34 26.0001ZM18 34L18 34.5L18 34ZM26.5 11.0001C26.5 17.0991 28.2825 20.2579 30.1746 21.8797C31.1134 22.6845 32.056 23.0897 32.7689 23.2934C33.1251 23.3951 33.4244 23.4467 33.6385 23.473C33.7455 23.4861 33.8315 23.4928 33.8929 23.4964C33.9236 23.4981 33.9481 23.499 33.9661 23.4995C33.9751 23.4998 33.9825 23.4999 33.9881 23.5C33.991 23.5 33.9934 23.5001 33.9954 23.5001C33.9963 23.5001 33.9972 23.5001 33.998 23.5001C33.9984 23.5001 33.9989 23.5001 33.9991 23.5001C33.9996 23.5001 34 23.5001 34 23.0001C34 22.5001 34.0004 22.5001 34.0008 22.5001C34.0008 22.5001 34.0012 22.5001 34.0014 22.5001C34.0017 22.5001 34.002 22.5001 34.0021 22.5001C34.0024 22.5001 34.0023 22.5001 34.0017 22.5001C34.0007 22.5001 33.998 22.5 33.9937 22.4999C33.9852 22.4997 33.9705 22.4992 33.9499 22.498C33.9087 22.4956 33.8443 22.4907 33.76 22.4804C33.5912 22.4597 33.3437 22.4176 33.0436 22.3318C32.444 22.1605 31.6366 21.8158 30.8254 21.1205C29.2175 19.7423 27.5 16.9012 27.5 11.0001L26.5 11.0001ZM8.5 11.0001C8.5 16.9013 6.78246 19.7424 5.17461 21.1205C4.36343 21.8158 3.55604 22.1605 2.9564 22.3319C2.65635 22.4176 2.40881 22.4597 2.24002 22.4804C2.1557 22.4907 2.09129 22.4956 2.0501 22.498C2.02952 22.4992 2.01477 22.4997 2.00627 22.4999C2.00203 22.5 1.99935 22.5001 1.99829 22.5001C1.99776 22.5001 1.99763 22.5001 1.99792 22.5001C1.99806 22.5001 1.9983 22.5001 1.99865 22.5001C1.99883 22.5001 1.99917 22.5001 1.99926 22.5001C1.99962 22.5001 2.00001 22.5001 2 23.0001C1.99998 23.5001 2.00043 23.5001 2.0009 23.5001C2.0011 23.5001 2.0016 23.5001 2.00198 23.5001C2.00276 23.5001 2.00364 23.5001 2.00463 23.5001C2.00662 23.5001 2.00903 23.5 2.01186 23.5C2.01753 23.4999 2.02489 23.4998 2.03389 23.4995C2.05188 23.499 2.07644 23.4981 2.10712 23.4964C2.16848 23.4928 2.25445 23.4861 2.36154 23.473C2.57556 23.4468 2.8749 23.3951 3.2311 23.2934C3.94396 23.0897 4.88657 22.6845 5.82539 21.8798C7.71754 20.258 9.5 17.0991 9.5 11.0001L8.5 11.0001ZM27.5 11.0001C27.5 7.86441 26.3191 5.47589 24.5197 3.87634C22.7294 2.28498 20.3565 1.50001 18 1.5C15.6435 1.49999 13.2706 2.28494 11.4803 3.8763C9.68085 5.47584 8.5 7.86437 8.5 11.0001L9.5 11.0001C9.5 8.13572 10.5692 6.02419 12.1447 4.62371C13.7294 3.21504 15.8565 2.49999 18 2.5C20.1435 2.50001 22.2706 3.21507 23.8553 4.62375C25.4308 6.02424 26.5 8.13576 26.5 11.0001L27.5 11.0001ZM1.5 23.0001L1.5 26.0001L2.5 26.0001L2.5 23.0001L1.5 23.0001ZM2 26.5001L34 26.5001L34 25.5001L2 25.5001L2 26.5001ZM34.5 26.0001L34.5 23.0001L33.5 23.0001L33.5 26.0001L34.5 26.0001ZM23.5 28C23.5 31.0376 21.0376 33.5 18 33.5L18 34.5C21.5898 34.5 24.5 31.5899 24.5 28L23.5 28ZM18 33.5C14.9624 33.5 12.5 31.0376 12.5 28L11.5 28C11.5 31.5899 14.4101 34.5 18 34.5L18 33.5Z" fill="#242430"/>
</svg>
