<svg xmlns="http://www.w3.org/2000/svg" fill="none" viewBox="0.5 17.77 133.49 157.51">
<path d="M8.01697 153.387L54.6262 79.2038" stroke="#53E1AD" stroke-width="14"/>
<path d="M22.0509 160.832L68.6602 86.6492" stroke="#FBD200" stroke-width="14"/>
<path d="M36.0848 168.277L82.6941 94.0946" stroke="#FF665C" stroke-width="14"/>
<path d="M1 149.664L47.6093 75.4811M15.0339 157.109L61.6432 82.9265M29.0678 164.555L75.6771 90.3719M43.1018 172L89.711 97.8173" stroke="#242430"/>
<path d="M56.7455 83.5521C61.2803 76.3347 68.2188 72.8927 71.1212 72.0739L81.1663 77.4031C81.8459 80.1223 82.0712 87.3649 77.5365 94.5823L56.7455 83.5521Z" fill="#242430" stroke="#242430"/>
<path d="M95.7382 18.2668C83.0815 18.7695 75.3949 24.4562 75.3949 24.4562L99.651 37.3248C99.651 37.3248 101.274 28.4209 95.7382 18.2668Z" fill="#FF665C" stroke="#242430"/>
<rect width="27.4584" height="3.76049" transform="matrix(0.88338 0.468658 -0.532009 0.846739 75.3949 24.4562)" fill="#242430" stroke="#242430"/>
<rect width="27.4584" height="3.76049" transform="matrix(0.88338 0.468658 -0.532009 0.846739 99.651 37.3248)" fill="#242430" stroke="#242430"/>
<path d="M73.3942 27.6404L97.6503 40.5089L76.1437 74.7385L51.8876 61.87L73.3942 27.6404Z" fill="#FBD200" stroke="#242430"/>
<path d="M97.6504 40.5089L121.907 53.3775L100.4 87.6071L76.1438 74.7385L97.6504 40.5089Z" fill="#FBD200" stroke="#242430"/>
<path d="M119.994 31.1354C107.338 31.638 99.651 37.3248 99.651 37.3248L123.907 50.1934C123.907 50.1934 125.53 41.2895 119.994 31.1354Z" fill="#FF665C" stroke="#242430"/>
<path d="M40.8005 32.6375L70.1432 32.8146L56.0138 55.3027L32.4229 45.9712L40.8005 32.6375Z" fill="#FF665C" stroke="#242430"/>
<path d="M133.494 81.8139L118.656 58.5518L104.526 81.0398L125.116 95.1475L133.494 81.8139Z" fill="#FF665C" stroke="#242430"/>
<path d="M82.4035 43.6343C76.39 53.2054 80.0594 61.4594 82.6457 64.3901C86.7009 64.983 96.3147 63.776 102.328 54.2049C108.342 44.6339 103.549 38.1675 100.401 36.1307C96.9076 34.644 88.4171 34.0633 82.4035 43.6343Z" fill="#FF665C" stroke="#242430"/>
<path d="M84.2712 61.8029L98.4005 39.3149" stroke="#242430"/>
<path d="M46.1178 74.7297C49.8968 68.7152 56.2759 66.1636 58.9931 65.6396L69.0382 70.9688C69.9029 73.3932 70.6877 79.7454 66.9088 85.7599L46.1178 74.7297Z" fill="#8EEBFF" stroke="#242430"/>
<path d="M70.374 87.5983C74.153 81.5838 80.5321 79.0322 83.2493 78.5082L93.2944 83.8374C94.1591 86.2617 94.944 92.614 91.165 98.6285L70.374 87.5983Z" fill="#8EEBFF" stroke="#242430"/>
<ellipse rx="1.96131" ry="1.88024" transform="matrix(0.88338 0.468658 -0.532009 0.846739 58.7198 60.1877)" fill="#E8ECE2" stroke="#242430"/>
<ellipse rx="1.96131" ry="1.88024" transform="matrix(0.88338 0.468658 -0.532009 0.846739 98.5692 81.329)" fill="#E8ECE2" stroke="#242430"/>
<rect width="8.15098" height="8.15098" transform="matrix(1.00585 -0.24766 0.269517 0.924279 88.9515 43.3236)" fill="#FBD200" stroke="#242430"/>
<rect width="4.07549" height="4.07549" transform="matrix(1.00585 -0.24766 0.269517 0.924279 91.5504 44.7024)" fill="#53E1AD" stroke="#242430"/>
<path d="M60.0151 48.9343L33.2983 44.5781L32.423 45.9711L56.0139 55.3026L60.0151 48.9343Z" fill="#242430" stroke="#242430"/>
<path d="M108.527 74.6715L125.992 93.7545L125.116 95.1475L104.526 81.0398L108.527 74.6715Z" fill="#242430" stroke="#242430"/>
<rect width="44.1295" height="2.82036" transform="matrix(0.88338 0.468658 -0.532009 0.846739 56.6522 64.3977)" fill="#53E1AD" stroke="#242430"/>
<path d="M91.6389 77.6522L65.6502 63.8645L67.1506 61.4763L93.1394 75.2641L91.6389 77.6522Z" fill="#242430"/>
</svg>