<svg width="127" height="118" viewBox="0 0 127 118" fill="none" xmlns="http://www.w3.org/2000/svg">
<path d="M102.012 90.7726L150.27 85.1465L105.007 67.4524L135.219 29.3844L90.7726 48.8594L85.1465 0.601637L67.4409 45.7507L29.3844 15.6531L48.8594 60.0993L0.60164 65.7254L45.7507 83.4309L15.5385 121.499L60.0993 102.012L65.6108 150.282L83.4195 105.007L121.487 135.219L102.012 90.7726Z" fill="#FBD200"/>
<path d="M86.1266 82.3874L106.555 80.1191L87.4464 72.6169L100.186 56.543L81.381 64.7309L79.124 44.4163L71.6218 63.5247L55.5479 50.7855L63.7244 69.4765L43.4212 71.8471L62.5296 79.3493L49.779 95.3096L68.4701 87.133L70.852 107.55L78.3542 88.4415L94.3145 101.192L86.1266 82.3874Z" fill="#53E1AD"/>
<path d="M102.012 90.7726L101.955 90.2759C101.797 90.2943 101.658 90.3863 101.579 90.5238C101.5 90.6613 101.491 90.828 101.555 90.9733L102.012 90.7726ZM150.27 85.1465L150.328 85.6431C150.556 85.6166 150.737 85.4381 150.766 85.2105C150.796 84.9828 150.666 84.7644 150.452 84.6808L150.27 85.1465ZM105.007 67.4524L104.615 67.1415C104.516 67.2658 104.483 67.4295 104.524 67.5827C104.565 67.7358 104.677 67.8603 104.825 67.9181L105.007 67.4524ZM135.219 29.3844L135.61 29.6952C135.753 29.5153 135.755 29.2612 135.615 29.0792C135.475 28.8973 135.228 28.8343 135.018 28.9264L135.219 29.3844ZM90.7726 48.8594L90.276 48.9173C90.2943 49.0748 90.3863 49.2142 90.5238 49.2931C90.6613 49.372 90.8281 49.381 90.9733 49.3174L90.7726 48.8594ZM85.1465 0.601637L85.6431 0.543737C85.6166 0.315831 85.4383 0.13526 85.2108 0.105781C84.9832 0.0763014 84.7648 0.205481 84.681 0.419093L85.1465 0.601637ZM67.4409 45.7507L67.1308 46.1429C67.255 46.2412 67.4185 46.2748 67.5714 46.2334C67.7243 46.1921 67.8486 46.0808 67.9064 45.9333L67.4409 45.7507ZM29.3844 15.6531L29.6946 15.2609C29.5145 15.1185 29.2606 15.117 29.0789 15.2573C28.8972 15.3975 28.8343 15.6435 28.9265 15.8538L29.3844 15.6531ZM48.8594 60.0993L48.9173 60.5959C49.0748 60.5776 49.2142 60.4856 49.2931 60.3481C49.372 60.2106 49.381 60.0438 49.3174 59.8986L48.8594 60.0993ZM0.60164 65.7254L0.54374 65.2287C0.315834 65.2553 0.135263 65.4336 0.105784 65.6611C0.0763049 65.8887 0.205485 66.1071 0.419096 66.1908L0.60164 65.7254ZM45.7507 83.4309L46.1424 83.7417C46.241 83.6176 46.2748 83.454 46.2335 83.3009C46.1923 83.1478 46.0809 83.0233 45.9333 82.9654L45.7507 83.4309ZM15.5385 121.499L15.1469 121.188C15.0041 121.368 15.0023 121.622 15.1424 121.804C15.2824 121.986 15.5285 122.049 15.7389 121.957L15.5385 121.499ZM60.0993 102.012L60.596 101.956C60.578 101.798 60.4863 101.658 60.3488 101.579C60.2113 101.5 60.0443 101.491 59.8989 101.554L60.0993 102.012ZM65.6108 150.282L65.114 150.338C65.1401 150.566 65.3181 150.748 65.5457 150.777C65.7734 150.807 65.9921 150.678 66.0761 150.465L65.6108 150.282ZM83.4195 105.007L83.7303 104.615C83.6062 104.516 83.4427 104.483 83.2897 104.524C83.1367 104.565 83.0122 104.676 82.9542 104.824L83.4195 105.007ZM121.487 135.219L121.177 135.61C121.357 135.753 121.611 135.755 121.793 135.615C121.975 135.475 122.038 135.229 121.945 135.018L121.487 135.219ZM86.1266 82.3874L86.0714 81.8905C85.9135 81.908 85.7734 81.9995 85.6939 82.1369C85.6143 82.2743 85.6047 82.4414 85.6681 82.587L86.1266 82.3874ZM106.555 80.1191L106.61 80.6161C106.838 80.5907 107.02 80.4127 107.05 80.1848C107.081 79.9569 106.952 79.7377 106.738 79.6537L106.555 80.1191ZM87.4464 72.6169L87.0545 72.3063C86.9561 72.4305 86.9224 72.594 86.9636 72.747C87.0048 72.9 87.1162 73.0244 87.2637 73.0823L87.4464 72.6169ZM100.186 56.543L100.577 56.8536C100.72 56.6738 100.722 56.42 100.582 56.2382C100.442 56.0563 100.196 55.993 99.986 56.0846L100.186 56.543ZM81.381 64.7309L80.884 64.7861C80.9016 64.944 80.993 65.0841 81.1305 65.1636C81.2679 65.2432 81.435 65.2527 81.5806 65.1893L81.381 64.7309ZM79.124 44.4163L79.6209 44.3611C79.5956 44.1326 79.4176 43.9508 79.1897 43.9206C78.9618 43.8904 78.7426 44.0196 78.6586 44.2336L79.124 44.4163ZM71.6218 63.5247L71.3112 63.9166C71.4354 64.015 71.5989 64.0487 71.7519 64.0075C71.9049 63.9662 72.0293 63.8549 72.0872 63.7074L71.6218 63.5247ZM55.5479 50.7855L55.8584 50.3936C55.6785 50.251 55.4246 50.2493 55.2427 50.3894C55.0608 50.5295 54.9978 50.7755 55.0898 50.9859L55.5479 50.7855ZM63.7244 69.4765L63.7824 69.9732C63.9398 69.9548 64.0792 69.8629 64.1581 69.7254C64.237 69.588 64.246 69.4213 64.1825 69.2761L63.7244 69.4765ZM43.4212 71.8471L43.3632 71.3505C43.1354 71.3771 42.9548 71.5553 42.9253 71.7828C42.8958 72.0103 43.0249 72.2287 43.2385 72.3125L43.4212 71.8471ZM62.5296 79.3493L62.9202 79.6614C63.0193 79.5373 63.0536 79.3736 63.0126 79.2202C62.9716 79.0667 62.8601 78.942 62.7123 78.8839L62.5296 79.3493ZM49.779 95.3096L49.3884 94.9975C49.2448 95.1772 49.2423 95.4316 49.3823 95.614C49.5223 95.7964 49.7687 95.8598 49.9794 95.7677L49.779 95.3096ZM68.4701 87.133L68.9667 87.0751C68.9483 86.9177 68.8564 86.7783 68.719 86.6994C68.5816 86.6205 68.4149 86.6114 68.2697 86.675L68.4701 87.133ZM70.852 107.55L70.3553 107.608C70.3819 107.836 70.5601 108.016 70.7876 108.046C71.0151 108.075 71.2335 107.946 71.3174 107.733L70.852 107.55ZM78.3542 88.4415L78.6663 88.0509C78.5422 87.9518 78.3785 87.9175 78.225 87.9585C78.0716 87.9995 77.9468 88.111 77.8888 88.2588L78.3542 88.4415ZM94.3145 101.192L94.0024 101.583C94.1819 101.726 94.4361 101.729 94.6185 101.589C94.8009 101.449 94.8646 101.203 94.7729 100.992L94.3145 101.192ZM102.07 91.2692L150.328 85.6431L150.212 84.6499L101.955 90.2759L102.07 91.2692ZM150.452 84.6808L105.189 66.9867L104.825 67.9181L150.088 85.6122L150.452 84.6808ZM105.398 67.7632L135.61 29.6952L134.827 29.0736L104.615 67.1415L105.398 67.7632ZM135.018 28.9264L90.5719 48.4014L90.9733 49.3174L135.419 29.8424L135.018 28.9264ZM91.2692 48.8015L85.6431 0.543737L84.6499 0.659537L90.276 48.9173L91.2692 48.8015ZM84.681 0.419093L66.9755 45.5682L67.9064 45.9333L85.612 0.784182L84.681 0.419093ZM67.7511 45.3586L29.6946 15.2609L29.0743 16.0453L67.1308 46.1429L67.7511 45.3586ZM28.9265 15.8538L48.4014 60.2999L49.3174 59.8986L29.8424 15.4524L28.9265 15.8538ZM48.8015 59.6026L0.54374 65.2287L0.65954 66.222L48.9173 60.5959L48.8015 59.6026ZM0.419096 66.1908L45.5682 83.8964L45.9333 82.9654L0.784184 65.2599L0.419096 66.1908ZM45.3591 83.1201L15.1469 121.188L15.9302 121.81L46.1424 83.7417L45.3591 83.1201ZM15.7389 121.957L60.2996 102.471L59.8989 101.554L15.3382 121.041L15.7389 121.957ZM59.6025 102.069L65.114 150.338L66.1076 150.225L60.596 101.956L59.6025 102.069ZM66.0761 150.465L83.8848 105.19L82.9542 104.824L65.1455 150.099L66.0761 150.465ZM83.1087 105.398L121.177 135.61L121.798 134.827L83.7303 104.615L83.1087 105.398ZM121.945 135.018L102.47 90.5719L101.555 90.9733L121.029 135.419L121.945 135.018ZM86.1817 82.8844L106.61 80.6161L106.5 79.6222L86.0714 81.8905L86.1817 82.8844ZM106.738 79.6537L87.6291 72.1515L87.2637 73.0823L106.372 80.5845L106.738 79.6537ZM87.8382 72.9275L100.577 56.8536L99.7938 56.2325L87.0545 72.3063L87.8382 72.9275ZM99.986 56.0846L81.1814 64.2725L81.5806 65.1893L100.385 57.0014L99.986 56.0846ZM81.8779 64.6757L79.6209 44.3611L78.6271 44.4715L80.884 64.7861L81.8779 64.6757ZM78.6586 44.2336L71.1563 63.342L72.0872 63.7074L79.5894 44.599L78.6586 44.2336ZM71.9323 63.1328L55.8584 50.3936L55.2373 51.1773L71.3112 63.9166L71.9323 63.1328ZM55.0898 50.9859L63.2664 69.6769L64.1825 69.2761L56.006 50.5851L55.0898 50.9859ZM63.6665 68.9799L43.3632 71.3505L43.4792 72.3437L63.7824 69.9732L63.6665 68.9799ZM43.2385 72.3125L62.3468 79.8147L62.7123 78.8839L43.6039 71.3817L43.2385 72.3125ZM62.1389 79.0372L49.3884 94.9975L50.1696 95.6217L62.9202 79.6614L62.1389 79.0372ZM49.9794 95.7677L68.6705 87.5911L68.2697 86.675L49.5786 94.8515L49.9794 95.7677ZM67.9734 87.191L70.3553 107.608L71.3486 107.492L68.9667 87.0751L67.9734 87.191ZM71.3174 107.733L78.8196 88.6242L77.8888 88.2588L70.3865 107.367L71.3174 107.733ZM78.0421 88.8322L94.0024 101.583L94.6265 100.801L78.6663 88.0509L78.0421 88.8322ZM94.7729 100.992L86.585 82.1878L85.6681 82.587L93.856 101.392L94.7729 100.992Z" fill="#242430"/>
</svg>
